# Blender v2.93.5 OBJ File: ''
# www.blender.org
mtllib Arrow.mtl
o Cube_Cube.004
v -0.756359 -1.000000 0.512719
v -0.510815 -1.000000 0.997331
v -0.563149 -1.000000 0.989352
v -0.611630 -1.000000 0.976151
v -0.655728 -1.000000 0.957872
v -0.694960 -1.000000 0.934717
v -0.728895 -1.000000 0.906937
v -0.757163 -1.000000 0.874839
v -0.779453 -1.000000 0.838773
v -0.795521 -1.000000 0.799135
v -0.805191 -1.000000 0.756359
v -0.808357 -1.000000 0.710914
v -0.804984 -1.000000 0.663297
v -0.795110 -1.000000 0.614030
v -0.778842 -1.000000 0.563653
v -0.756359 1.000000 0.512719
v -0.778842 1.000000 0.563653
v -0.795110 1.000000 0.614030
v -0.804984 1.000000 0.663297
v -0.808357 1.000000 0.710914
v -0.805191 1.000000 0.756359
v -0.795521 1.000000 0.799135
v -0.779453 1.000000 0.838773
v -0.757163 1.000000 0.874839
v -0.728895 1.000000 0.906937
v -0.694960 1.000000 0.934717
v -0.655728 1.000000 0.957872
v -0.611630 1.000000 0.976151
v -0.563149 1.000000 0.989352
v -0.510815 1.000000 0.997331
v 0.756359 -1.000000 0.512719
v 0.778842 -1.000000 0.563653
v 0.795110 -1.000000 0.614030
v 0.804984 -1.000000 0.663297
v 0.808357 -1.000000 0.710914
v 0.805191 -1.000000 0.756359
v 0.795521 -1.000000 0.799135
v 0.779453 -1.000000 0.838773
v 0.757163 -1.000000 0.874839
v 0.728895 -1.000000 0.906937
v 0.694960 -1.000000 0.934717
v 0.655728 -1.000000 0.957872
v 0.611630 -1.000000 0.976151
v 0.563149 -1.000000 0.989352
v 0.510815 -1.000000 0.997331
v 0.756359 1.000000 0.512719
v 0.510815 1.000000 0.997331
v 0.563149 1.000000 0.989352
v 0.611630 1.000000 0.976151
v 0.655728 1.000000 0.957872
v 0.694960 1.000000 0.934717
v 0.728895 1.000000 0.906937
v 0.757163 1.000000 0.874839
v 0.779453 1.000000 0.838773
v 0.795521 1.000000 0.799135
v 0.805191 1.000000 0.756359
v 0.808357 1.000000 0.710914
v 0.804984 1.000000 0.663297
v 0.795110 1.000000 0.614030
v 0.778842 1.000000 0.563653
v -0.243641 -1.000000 -0.512719
v 0.243641 -1.000000 -0.512719
v -0.216839 -1.000000 -0.560984
v -0.187661 -1.000000 -0.603382
v -0.156427 -1.000000 -0.639448
v -0.123479 -1.000000 -0.668786
v -0.089179 -1.000000 -0.691076
v -0.053901 -1.000000 -0.706073
v -0.018033 -1.000000 -0.713613
v 0.018033 -1.000000 -0.713613
v 0.053901 -1.000000 -0.706073
v 0.089179 -1.000000 -0.691076
v 0.123479 -1.000000 -0.668786
v 0.156427 -1.000000 -0.639448
v 0.187661 -1.000000 -0.603382
v 0.216839 -1.000000 -0.560984
v 0.243641 1.000000 -0.512719
v -0.243641 1.000000 -0.512719
v 0.216839 1.000000 -0.560984
v 0.187661 1.000000 -0.603382
v 0.156427 1.000000 -0.639448
v 0.123479 1.000000 -0.668786
v 0.089179 1.000000 -0.691076
v 0.053901 1.000000 -0.706073
v 0.018033 1.000000 -0.713613
v -0.018033 1.000000 -0.713613
v -0.053901 1.000000 -0.706073
v -0.089179 1.000000 -0.691076
v -0.123479 1.000000 -0.668786
v -0.156427 1.000000 -0.639448
v -0.187661 1.000000 -0.603382
v -0.216839 1.000000 -0.560984
v -0.167903 1.000000 0.847833
v 0.167903 1.000000 0.847833
v -0.149433 1.000000 0.839024
v -0.129325 1.000000 0.831287
v -0.107801 1.000000 0.824704
v -0.085095 1.000000 0.819350
v -0.061457 1.000000 0.815282
v -0.037146 1.000000 0.812545
v -0.012427 1.000000 0.811169
v 0.012427 1.000000 0.811169
v 0.037146 1.000000 0.812545
v 0.061457 1.000000 0.815282
v 0.085095 1.000000 0.819350
v 0.107801 1.000000 0.824704
v 0.129325 1.000000 0.831287
v 0.149433 1.000000 0.839024
v 0.167903 -1.000000 0.847833
v -0.167903 -1.000000 0.847833
v 0.149433 -1.000000 0.839024
v 0.129325 -1.000000 0.831287
v 0.107801 -1.000000 0.824704
v 0.085095 -1.000000 0.819350
v 0.061457 -1.000000 0.815282
v 0.037146 -1.000000 0.812545
v 0.012427 -1.000000 0.811169
v -0.012427 -1.000000 0.811169
v -0.037146 -1.000000 0.812545
v -0.061457 -1.000000 0.815282
v -0.085095 -1.000000 0.819350
v -0.107801 -1.000000 0.824704
v -0.129325 -1.000000 0.831287
v -0.149433 -1.000000 0.839024
v -0.390734 -1.000000 0.965854
v -0.510815 -1.000000 0.997331
v -0.452609 -1.000000 0.989217
v -0.510815 1.000000 0.997331
v -0.390734 1.000000 0.965854
v -0.452609 1.000000 0.989217
v 0.510815 -1.000000 0.997331
v 0.390734 -1.000000 0.965854
v 0.452609 -1.000000 0.989217
v 0.390734 1.000000 0.965854
v 0.510815 1.000000 0.997331
v 0.452609 1.000000 0.989217
vt 0.814090 0.560910
vt 0.820457 0.554877
vt 0.826754 0.549577
vt 0.832912 0.545069
vt 0.838864 0.541402
vt 0.844545 0.538615
vt 0.849892 0.536741
vt 0.854847 0.535798
vt 0.859355 0.535798
vt 0.863367 0.536741
vt 0.866840 0.538615
vt 0.869734 0.541402
vt 0.872019 0.545069
vt 0.873669 0.549577
vt 0.874666 0.554877
vt 0.875000 0.560910
vt 0.875000 0.689090
vt 0.874627 0.695457
vt 0.873512 0.701754
vt 0.871667 0.707912
vt 0.869112 0.713864
vt 0.865876 0.719545
vt 0.861994 0.724892
vt 0.857508 0.729847
vt 0.852468 0.734355
vt 0.846928 0.738367
vt 0.840950 0.741840
vt 0.834599 0.744734
vt 0.827944 0.747019
vt 0.821059 0.748669
vt 0.814019 0.749666
vt 0.814019 0.749666
vt 0.807048 0.749056
vt 0.798842 0.750000
vt 0.770988 0.750000
vt 0.768609 0.750141
vt 0.765881 0.750568
vt 0.762833 0.751284
vt 0.759502 0.752270
vt 0.755948 0.753468
vt 0.752289 0.754709
vt 0.748753 0.755601
vt 0.745646 0.755601
vt 0.743002 0.754709
vt 0.740584 0.753468
vt 0.738228 0.752270
vt 0.735883 0.751283
vt 0.733550 0.750568
vt 0.731251 0.750141
vt 0.729012 0.750000
vt 0.701158 0.750000
vt 0.693896 0.749056
vt 0.686315 0.749666
vt 0.686315 0.749666
vt 0.680272 0.748669
vt 0.675037 0.747019
vt 0.670667 0.744734
vt 0.667210 0.741840
vt 0.664705 0.738367
vt 0.663177 0.734355
vt 0.662645 0.729847
vt 0.663114 0.724892
vt 0.664579 0.719545
vt 0.667023 0.713864
vt 0.670421 0.707912
vt 0.674734 0.701754
vt 0.679916 0.695457
vt 0.685910 0.689090
vt 0.314090 0.560910
vt 0.320457 0.554877
vt 0.326754 0.549577
vt 0.332912 0.545069
vt 0.338864 0.541402
vt 0.344545 0.538615
vt 0.349892 0.536741
vt 0.354847 0.535798
vt 0.359355 0.535798
vt 0.363367 0.536741
vt 0.366840 0.538615
vt 0.369734 0.541402
vt 0.372019 0.545069
vt 0.373669 0.549577
vt 0.374666 0.554877
vt 0.375000 0.560910
vt 0.375000 0.689090
vt 0.374627 0.695457
vt 0.373512 0.701754
vt 0.371667 0.707912
vt 0.369112 0.713864
vt 0.365876 0.719545
vt 0.361994 0.724892
vt 0.357508 0.729847
vt 0.352468 0.734355
vt 0.346928 0.738367
vt 0.340950 0.741840
vt 0.334599 0.744734
vt 0.327944 0.747019
vt 0.321059 0.748669
vt 0.314019 0.749666
vt 0.314019 0.749666
vt 0.307048 0.749056
vt 0.298842 0.750000
vt 0.270988 0.750000
vt 0.268609 0.750141
vt 0.265881 0.750568
vt 0.262833 0.751284
vt 0.259502 0.752270
vt 0.255948 0.753468
vt 0.252289 0.754709
vt 0.248753 0.755601
vt 0.245646 0.755601
vt 0.243002 0.754709
vt 0.240584 0.753468
vt 0.238228 0.752270
vt 0.235883 0.751283
vt 0.233550 0.750568
vt 0.231251 0.750141
vt 0.229012 0.750000
vt 0.201158 0.750000
vt 0.193896 0.749056
vt 0.186315 0.749666
vt 0.186315 0.749666
vt 0.180272 0.748669
vt 0.175037 0.747019
vt 0.170667 0.744734
vt 0.167210 0.741840
vt 0.164704 0.738367
vt 0.163177 0.734355
vt 0.162645 0.729847
vt 0.163114 0.724892
vt 0.164579 0.719545
vt 0.167023 0.713864
vt 0.170421 0.707912
vt 0.174734 0.701754
vt 0.179916 0.695457
vt 0.185910 0.689090
vt 0.375000 0.060910
vt 0.625000 0.060910
vt 0.625000 0.189090
vt 0.375000 0.189090
vt 0.625000 0.560910
vt 0.625000 0.689090
vt 0.375000 0.895988
vt 0.625000 0.895988
vt 0.625000 0.923842
vt 0.375000 0.923842
vt 0.375000 0.938852
vt 0.625000 0.938852
vt 0.625000 0.945394
vt 0.375000 0.945394
vt 0.625000 0.951454
vt 0.375000 0.951454
vt 0.625000 0.956966
vt 0.375000 0.956966
vt 0.625000 0.961870
vt 0.375000 0.961870
vt 0.625000 0.966112
vt 0.375000 0.966112
vt 0.625000 0.969645
vt 0.375000 0.969645
vt 0.375000 0.000000
vt 0.625000 0.000000
vt 0.625000 0.027150
vt 0.375000 0.027150
vt 0.625000 0.030310
vt 0.375000 0.030310
vt 0.625000 0.034105
vt 0.375000 0.034105
vt 0.625000 0.038491
vt 0.375000 0.038491
vt 0.625000 0.043421
vt 0.375000 0.043421
vt 0.625000 0.048841
vt 0.375000 0.048842
vt 0.625000 0.054693
vt 0.375000 0.054693
vt 0.375000 0.554744
vt 0.625000 0.554744
vt 0.375000 0.549045
vt 0.625000 0.549045
vt 0.375000 0.543877
vt 0.625000 0.543877
vt 0.375000 0.539295
vt 0.625000 0.539295
vt 0.375000 0.535351
vt 0.625000 0.535351
vt 0.375000 0.532088
vt 0.625000 0.532088
vt 0.375000 0.529540
vt 0.625000 0.529540
vt 0.625000 0.250000
vt 0.375000 0.250000
vt 0.375000 0.220460
vt 0.625000 0.220460
vt 0.375000 0.217912
vt 0.625000 0.217912
vt 0.375000 0.214649
vt 0.625000 0.214649
vt 0.375000 0.210705
vt 0.625000 0.210705
vt 0.375000 0.206123
vt 0.625000 0.206123
vt 0.375000 0.200955
vt 0.625000 0.200955
vt 0.375000 0.195256
vt 0.625000 0.195256
vt 0.625000 0.811148
vt 0.375000 0.811148
vt 0.375000 0.804606
vt 0.625000 0.804606
vt 0.375000 0.798546
vt 0.625000 0.798546
vt 0.375000 0.793034
vt 0.625000 0.793034
vt 0.375000 0.788130
vt 0.625000 0.788130
vt 0.375000 0.783888
vt 0.625000 0.783888
vt 0.375000 0.780355
vt 0.625000 0.780355
vt 0.375000 0.722850
vt 0.625000 0.722850
vt 0.375000 0.719690
vt 0.625000 0.719690
vt 0.375000 0.715895
vt 0.625000 0.715895
vt 0.375000 0.711509
vt 0.625000 0.711509
vt 0.375000 0.706579
vt 0.625000 0.706579
vt 0.375000 0.701158
vt 0.625000 0.701158
vt 0.375000 0.695307
vt 0.625000 0.695307
vt 0.375000 0.826158
vt 0.625000 0.826158
vt 0.625000 0.854012
vt 0.375000 0.854012
vt 0.375000 0.893729
vt 0.625000 0.893729
vt 0.375000 0.891367
vt 0.625000 0.891367
vt 0.375000 0.888925
vt 0.625000 0.888925
vt 0.375000 0.886432
vt 0.625000 0.886432
vt 0.375000 0.883914
vt 0.625000 0.883914
vt 0.375000 0.881399
vt 0.625000 0.881399
vt 0.375000 0.878915
vt 0.625000 0.878915
vt 0.375000 0.871085
vt 0.625000 0.871085
vt 0.375000 0.868601
vt 0.625000 0.868601
vt 0.375000 0.866086
vt 0.625000 0.866086
vt 0.375000 0.863568
vt 0.625000 0.863568
vt 0.375000 0.861075
vt 0.625000 0.861075
vt 0.375000 0.858633
vt 0.625000 0.858633
vt 0.375000 0.856270
vt 0.625000 0.856270
vt 0.625000 0.811148
vt 0.375000 0.811148
vt 0.625000 0.931900
vt 0.375000 0.931900
vt 0.625000 0.938852
vt 0.375000 0.938852
vt 0.375000 0.818100
vt 0.625000 0.818100
vn 0.0000 1.0000 0.0000
vn 0.0000 -1.0000 0.0000
vn -0.8944 0.0000 -0.4472
vn 0.8944 0.0000 -0.4472
vn 0.4680 -0.0000 0.8837
vn -0.1507 0.0000 0.9886
vn -0.2627 0.0000 0.9649
vn -0.3829 0.0000 0.9238
vn -0.5083 0.0000 0.8612
vn -0.6334 0.0000 0.7738
vn -0.7505 0.0000 0.6609
vn -0.8507 0.0000 0.5257
vn -0.9268 0.0000 0.3757
vn -0.9754 0.0000 0.2205
vn -0.9976 0.0000 0.0695
vn -0.9975 0.0000 -0.0706
vn -0.9805 0.0000 -0.1965
vn -0.9516 0.0000 -0.3073
vn -0.9148 0.0000 -0.4038
vn 0.8742 0.0000 -0.4855
vn 0.8238 0.0000 -0.5669
vn 0.7559 0.0000 -0.6547
vn 0.6650 0.0000 -0.7468
vn 0.5449 0.0000 -0.8385
vn 0.3912 0.0000 -0.9203
vn 0.2057 0.0000 -0.9786
vn 0.0000 0.0000 -1.0000
vn -0.2057 0.0000 -0.9786
vn -0.3912 0.0000 -0.9203
vn -0.5449 0.0000 -0.8385
vn -0.6650 0.0000 -0.7468
vn -0.7559 0.0000 -0.6547
vn -0.8238 0.0000 -0.5669
vn -0.8742 0.0000 -0.4855
vn 0.1507 0.0000 0.9886
vn 0.2627 0.0000 0.9649
vn 0.3829 0.0000 0.9238
vn 0.5083 0.0000 0.8612
vn 0.6334 0.0000 0.7738
vn 0.7505 0.0000 0.6609
vn 0.8507 0.0000 0.5257
vn 0.9268 0.0000 0.3757
vn 0.9754 0.0000 0.2205
vn 0.9976 0.0000 0.0695
vn 0.9975 0.0000 -0.0706
vn 0.9805 0.0000 -0.1965
vn 0.9516 0.0000 -0.3073
vn 0.9148 0.0000 -0.4038
vn -0.4680 0.0000 0.8837
vn 0.4305 -0.0000 0.9026
vn 0.3591 0.0000 0.9333
vn 0.2924 0.0000 0.9563
vn 0.2295 0.0000 0.9733
vn 0.1696 0.0000 0.9855
vn 0.1119 -0.0000 0.9937
vn 0.0556 -0.0000 0.9985
vn 0.0000 0.0000 1.0000
vn -0.0556 0.0000 0.9985
vn -0.1119 0.0000 0.9937
vn -0.1696 0.0000 0.9855
vn -0.2295 0.0000 0.9733
vn -0.2924 0.0000 0.9563
vn -0.3591 0.0000 0.9333
vn -0.4305 0.0000 0.9026
vn 0.3532 0.0000 0.9355
vn 0.1381 0.0000 0.9904
vn -0.3532 0.0000 0.9355
vn -0.1381 0.0000 0.9904
usemtl None
s off
f 77/1/1 79/2/1 80/3/1 81/4/1 82/5/1 83/6/1 84/7/1 85/8/1 86/9/1 87/10/1 88/11/1 89/12/1 90/13/1 91/14/1 92/15/1 78/16/1 16/17/1 17/18/1 18/19/1 19/20/1 20/21/1 21/22/1 22/23/1 23/24/1 24/25/1 25/26/1 26/27/1 27/28/1 28/29/1 29/30/1 30/31/1 128/32/1 130/33/1 129/34/1 93/35/1 95/36/1 96/37/1 97/38/1 98/39/1 99/40/1 100/41/1 101/42/1 102/43/1 103/44/1 104/45/1 105/46/1 106/47/1 107/48/1 108/49/1 94/50/1 134/51/1 136/52/1 135/53/1 47/54/1 48/55/1 49/56/1 50/57/1 51/58/1 52/59/1 53/60/1 54/61/1 55/62/1 56/63/1 57/64/1 58/65/1 59/66/1 60/67/1 46/68/1
f 61/69/2 63/70/2 64/71/2 65/72/2 66/73/2 67/74/2 68/75/2 69/76/2 70/77/2 71/78/2 72/79/2 73/80/2 74/81/2 75/82/2 76/83/2 62/84/2 31/85/2 32/86/2 33/87/2 34/88/2 35/89/2 36/90/2 37/91/2 38/92/2 39/93/2 40/94/2 41/95/2 42/96/2 43/97/2 44/98/2 45/99/2 131/100/2 133/101/2 132/102/2 109/103/2 111/104/2 112/105/2 113/106/2 114/107/2 115/108/2 116/109/2 117/110/2 118/111/2 119/112/2 120/113/2 121/114/2 122/115/2 123/116/2 124/117/2 110/118/2 125/119/2 127/120/2 126/121/2 2/122/2 3/123/2 4/124/2 5/125/2 6/126/2 7/127/2 8/128/2 9/129/2 10/130/2 11/131/2 12/132/2 13/133/2 14/134/2 15/135/2 1/136/2
f 1/137/3 16/138/3 78/139/3 61/140/3
f 62/84/4 77/141/4 46/142/4 31/85/4
f 110/143/5 93/144/5 129/145/5 125/146/5
f 2/147/6 30/148/6 29/149/6 3/150/6
f 3/150/7 29/149/7 28/151/7 4/152/7
f 4/152/8 28/151/8 27/153/8 5/154/8
f 5/154/9 27/153/9 26/155/9 6/156/9
f 6/156/10 26/155/10 25/157/10 7/158/10
f 7/158/11 25/157/11 24/159/11 8/160/11
f 8/161/12 24/162/12 23/163/12 9/164/12
f 9/164/13 23/163/13 22/165/13 10/166/13
f 10/166/14 22/165/14 21/167/14 11/168/14
f 11/168/15 21/167/15 20/169/15 12/170/15
f 12/170/16 20/169/16 19/171/16 13/172/16
f 13/172/17 19/171/17 18/173/17 14/174/17
f 14/174/18 18/173/18 17/175/18 15/176/18
f 15/176/19 17/175/19 16/138/19 1/137/19
f 77/141/20 62/84/20 76/177/20 79/178/20
f 79/178/21 76/177/21 75/179/21 80/180/21
f 80/180/22 75/179/22 74/181/22 81/182/22
f 81/182/23 74/181/23 73/183/23 82/184/23
f 82/184/24 73/183/24 72/185/24 83/186/24
f 83/186/25 72/185/25 71/187/25 84/188/25
f 84/188/26 71/187/26 70/189/26 85/190/26
f 85/191/27 70/192/27 69/193/27 86/194/27
f 86/194/28 69/193/28 68/195/28 87/196/28
f 87/196/29 68/195/29 67/197/29 88/198/29
f 88/198/30 67/197/30 66/199/30 89/200/30
f 89/200/31 66/199/31 65/201/31 90/202/31
f 90/202/32 65/201/32 64/203/32 91/204/32
f 91/204/33 64/203/33 63/205/33 92/206/33
f 92/206/34 63/205/34 61/140/34 78/139/34
f 47/207/35 45/208/35 44/209/35 48/210/35
f 48/210/36 44/209/36 43/211/36 49/212/36
f 49/212/37 43/211/37 42/213/37 50/214/37
f 50/214/38 42/213/38 41/215/38 51/216/38
f 51/216/39 41/215/39 40/217/39 52/218/39
f 52/218/40 40/217/40 39/219/40 53/220/40
f 53/220/41 39/219/41 38/221/41 54/222/41
f 54/222/42 38/221/42 37/223/42 55/224/42
f 55/224/43 37/223/43 36/225/43 56/226/43
f 56/226/44 36/225/44 35/227/44 57/228/44
f 57/228/45 35/227/45 34/229/45 58/230/45
f 58/230/46 34/229/46 33/231/46 59/232/46
f 59/232/47 33/231/47 32/233/47 60/234/47
f 60/234/48 32/233/48 31/85/48 46/142/48
f 132/235/49 134/236/49 94/237/49 109/238/49
f 93/144/50 110/143/50 124/239/50 95/240/50
f 95/240/51 124/239/51 123/241/51 96/242/51
f 96/242/52 123/241/52 122/243/52 97/244/52
f 97/244/53 122/243/53 121/245/53 98/246/53
f 98/246/54 121/245/54 120/247/54 99/248/54
f 99/248/55 120/247/55 119/249/55 100/250/55
f 100/250/56 119/249/56 118/251/56 101/252/56
f 101/252/57 118/251/57 117/253/57 102/254/57
f 102/254/58 117/253/58 116/255/58 103/256/58
f 103/256/59 116/255/59 115/257/59 104/258/59
f 104/258/60 115/257/60 114/259/60 105/260/60
f 105/260/61 114/259/61 113/261/61 106/262/61
f 106/262/62 113/261/62 112/263/62 107/264/62
f 107/264/63 112/263/63 111/265/63 108/266/63
f 108/266/64 111/265/64 109/238/64 94/237/64
f 135/267/57 131/268/57 45/208/57 47/207/57
f 125/146/65 129/145/65 130/269/65 127/270/65
f 127/270/66 130/269/66 128/271/66 126/272/66
f 134/236/67 132/235/67 133/273/67 136/274/67
f 136/274/68 133/273/68 131/268/68 135/267/68
f 126/272/57 128/271/57 30/148/57 2/147/57
